<svg width="154" height="137" viewBox="0 0 154 137" fill="none" xmlns="http://www.w3.org/2000/svg">
    <path d="M77.0002 137C125.298 137 129.161 106.332 129.161 68.5C129.161 30.6685 105.808 0 77.0002 0C48.1923 0 24.8389 30.6685 24.8389 68.5C24.8389 106.332 28.7019 137 77.0002 137Z" fill="black"/>
    <mask id="mask0_291_1278" style="mask-type:luminance" maskUnits="userSpaceOnUse" x="24" y="0" width="106" height="137">
        <path d="M77.0002 137C125.298 137 129.161 106.332 129.161 68.5C129.161 30.6685 105.808 0 77.0002 0C48.1923 0 24.8389 30.6685 24.8389 68.5C24.8389 106.332 28.7019 137 77.0002 137Z" fill="white"/>
    </mask>
    <g mask="url(#mask0_291_1278)">
        <path d="M77.0006 224.397C108.552 224.397 134.13 185.268 134.13 137C134.13 88.7323 108.552 49.6035 77.0006 49.6035C45.4491 49.6035 19.8716 88.7323 19.8716 137C19.8716 185.268 45.4491 224.397 77.0006 224.397Z" fill="#ECECEC"/>
    </g>
    <path d="M91.903 51.9645C101.506 51.9645 109.29 44.5617 109.29 35.43C109.29 26.2982 101.506 18.8955 91.903 18.8955C82.3003 18.8955 74.5159 26.2982 74.5159 35.43C74.5159 44.5617 82.3003 51.9645 91.903 51.9645Z" fill="white"/>
    <path d="M62.0966 51.9645C71.6992 51.9645 79.4837 44.5617 79.4837 35.43C79.4837 26.2982 71.6992 18.8955 62.0966 18.8955C52.4939 18.8955 44.7095 26.2982 44.7095 35.43C44.7095 44.5617 52.4939 51.9645 62.0966 51.9645Z" fill="white"/>
    <path d="M86.936 40.1534C89.6796 40.1534 91.9037 38.0383 91.9037 35.4292C91.9037 32.8201 89.6796 30.7051 86.936 30.7051C84.1924 30.7051 81.9683 32.8201 81.9683 35.4292C81.9683 38.0383 84.1924 40.1534 86.936 40.1534Z" fill="black"/>
    <path d="M67.0647 40.1534C69.8083 40.1534 72.0324 38.0383 72.0324 35.4292C72.0324 32.8201 69.8083 30.7051 67.0647 30.7051C64.3211 30.7051 62.0969 32.8201 62.0969 35.4292C62.0969 38.0383 64.3211 40.1534 67.0647 40.1534Z" fill="black"/>
    <path fill-rule="evenodd" clip-rule="evenodd" d="M77.0001 61.4141L91.9034 42.5175H62.0969L77.0001 61.4141Z" fill="#696A3D"/>
    <path fill-rule="evenodd" clip-rule="evenodd" d="M29.8064 56.6885V77.9471H0L29.8064 56.6885Z" fill="black"/>
    <path fill-rule="evenodd" clip-rule="evenodd" d="M124.193 56.6885V77.9471H154L124.193 56.6885Z" fill="black"/>
</svg>
