<?xml version="1.0" encoding="utf-8"?>
<!-- Generator: Adobe Illustrator 26.3.1, SVG Export Plug-In . SVG Version: 6.00 Build 0)  -->
<svg version="1.1" id="图层_1" xmlns="http://www.w3.org/2000/svg" xmlns:xlink="http://www.w3.org/1999/xlink" x="0px" y="0px"
	 viewBox="0 0 646 381" enable-background="new 0 0 646 381" xml:space="preserve">
<g>
	<g>
		<path d="M2,77.67V52.84h22.21V42.39c0-12.02,3.74-21.86,11.24-29.53c7.49-7.67,18.82-11.5,33.98-11.5c3.31,0,6.62,0.13,9.93,0.39
			c3.31,0.26,6.53,0.48,9.67,0.65v27.7c-4.36-0.52-8.89-0.78-13.59-0.78c-5.06,0-8.67,1.18-10.85,3.53
			c-2.18,2.35-3.27,6.32-3.27,11.89v8.1h25.61v24.83H61.33v110.29H24.22V77.67H2z"/>
		<path d="M140.25,1.36v70.3h0.78c4.7-7.84,10.71-13.54,18.03-17.12c7.32-3.57,14.46-5.36,21.43-5.36c9.93,0,18.07,1.35,24.44,4.05
			c6.36,2.7,11.37,6.45,15.03,11.24c3.66,4.79,6.23,10.63,7.71,17.51c1.48,6.88,2.22,14.5,2.22,22.87v83.11h-37.11v-76.31
			c0-11.15-1.74-19.47-5.23-24.96c-3.49-5.49-9.67-8.23-18.56-8.23c-10.11,0-17.42,3.01-21.95,9.02c-4.53,6.01-6.79,15.9-6.79,29.66
			v70.83h-37.11V1.36H140.25z"/>
	</g>
	<g>
		<path d="M132.61,375.28l-24.04-90.69h-0.52l-23,90.69H46.63L3.77,240.16h39.2l24.83,91.73h0.52l22.48-91.73h36.07l23,91.47h0.52
			l24.83-91.47h38.16l-42.6,135.12H132.61z"/>
		<path d="M227.48,281.72c0.52-8.71,2.7-15.94,6.53-21.69c3.83-5.75,8.71-10.36,14.64-13.85c5.92-3.48,12.58-5.97,19.99-7.45
			c7.4-1.48,14.85-2.22,22.34-2.22c6.79,0,13.68,0.48,20.65,1.44c6.97,0.96,13.33,2.83,19.08,5.62c5.75,2.79,10.45,6.67,14.11,11.63
			c3.66,4.97,5.49,11.54,5.49,19.73v70.3c0,6.1,0.35,11.94,1.05,17.51c0.69,5.58,1.92,9.76,3.66,12.54h-37.63
			c-0.7-2.09-1.27-4.22-1.7-6.4c-0.44-2.18-0.74-4.4-0.92-6.66c-5.92,6.1-12.9,10.37-20.91,12.81c-8.02,2.44-16.2,3.66-24.57,3.66
			c-6.45,0-12.46-0.78-18.03-2.35c-5.58-1.57-10.45-4.01-14.64-7.32c-4.18-3.31-7.45-7.49-9.8-12.54
			c-2.35-5.05-3.53-11.06-3.53-18.03c0-7.67,1.35-13.98,4.05-18.95c2.7-4.96,6.18-8.93,10.45-11.89c4.27-2.96,9.15-5.18,14.63-6.66
			c5.49-1.48,11.02-2.65,16.6-3.53c5.57-0.87,11.06-1.57,16.46-2.09c5.4-0.52,10.19-1.31,14.37-2.35c4.18-1.04,7.49-2.57,9.93-4.57
			c2.44-2,3.57-4.92,3.4-8.75c0-4.01-0.65-7.19-1.96-9.54c-1.31-2.35-3.05-4.18-5.23-5.49c-2.18-1.31-4.7-2.18-7.58-2.61
			c-2.88-0.43-5.97-0.65-9.28-0.65c-7.32,0-13.07,1.57-17.25,4.71c-4.18,3.14-6.62,8.36-7.32,15.68H227.48z M313.2,309.16
			c-1.57,1.4-3.53,2.48-5.88,3.27c-2.35,0.78-4.88,1.44-7.58,1.96c-2.7,0.52-5.53,0.96-8.49,1.31c-2.96,0.35-5.93,0.78-8.89,1.31
			c-2.79,0.52-5.53,1.22-8.23,2.09c-2.7,0.87-5.06,2.05-7.06,3.53c-2,1.48-3.62,3.36-4.83,5.62c-1.22,2.27-1.83,5.14-1.83,8.62
			c0,3.31,0.61,6.1,1.83,8.36c1.22,2.27,2.88,4.05,4.97,5.36s4.53,2.22,7.32,2.74c2.79,0.52,5.66,0.78,8.62,0.78
			c7.32,0,12.98-1.22,16.99-3.66c4.01-2.44,6.97-5.36,8.89-8.75c1.92-3.4,3.09-6.84,3.53-10.32c0.43-3.48,0.65-6.27,0.65-8.36
			V309.16z"/>
		<path d="M412.51,375.28l-46.26-135.12h38.94l28.49,92.26h0.52l28.49-92.26h36.85L453.8,375.28H412.51z"/>
		<path d="M554.68,342.87c5.57,5.4,13.59,8.1,24.04,8.1c7.49,0,13.94-1.87,19.34-5.62c5.4-3.75,8.71-7.71,9.93-11.89h32.67
			c-5.23,16.2-13.24,27.79-24.04,34.76c-10.8,6.97-23.87,10.45-39.2,10.45c-10.63,0-20.21-1.7-28.75-5.1
			c-8.54-3.4-15.77-8.23-21.69-14.5c-5.93-6.27-10.5-13.76-13.72-22.48c-3.23-8.71-4.83-18.29-4.83-28.75
			c0-10.1,1.65-19.51,4.97-28.22c3.31-8.71,8.01-16.24,14.11-22.61c6.1-6.36,13.37-11.37,21.82-15.03
			c8.45-3.66,17.81-5.49,28.09-5.49c11.5,0,21.52,2.22,30.05,6.66c8.54,4.44,15.55,10.41,21.04,17.9
			c5.49,7.49,9.45,16.03,11.89,25.61c2.44,9.58,3.31,19.6,2.61,30.05h-97.48C546.05,328.76,549.1,337.47,554.68,342.87z
			 M596.62,271.78c-4.44-4.88-11.2-7.32-20.25-7.32c-5.93,0-10.85,1-14.77,3c-3.92,2.01-7.06,4.49-9.41,7.45
			c-2.35,2.96-4.01,6.1-4.97,9.41c-0.96,3.31-1.53,6.27-1.7,8.89h60.37C604.16,283.81,601.07,276.66,596.62,271.78z"/>
	</g>
	<g>
		<path fill="#FFFFFF" d="M549.52,122.29c-23.25,0-35.5-5.25-46.32-9.87c-10.9-4.67-21.2-9.07-46.81-9.07s-35.91,4.41-46.81,9.07
			c-10.81,4.63-23.07,9.87-46.32,9.87c-23.25,0-35.5-5.25-46.32-9.87c-10.9-4.67-21.2-9.07-46.81-9.07V72.22
			c31.99,0,46.37,6.15,59.05,11.58c9.61,4.11,17.21,7.36,34.07,7.36s24.46-3.25,34.07-7.36c12.69-5.43,27.07-11.58,59.05-11.58
			c31.99,0,46.37,6.15,59.05,11.58c9.61,4.11,17.21,7.36,34.07,7.36s24.46-3.25,34.07-7.36c12.69-5.43,27.07-11.58,59.05-11.58
			v31.12c-25.61,0-35.91,4.41-46.81,9.07C585.03,117.04,572.77,122.29,549.52,122.29z"/>
	</g>
	<g>
		<path fill="#FFFFFF" d="M549.52,192.15c-23.25,0-35.5-5.25-46.32-9.87c-10.9-4.67-21.2-9.07-46.81-9.07s-35.91,4.41-46.81,9.07
			c-10.81,4.63-23.07,9.87-46.32,9.87c-23.25,0-35.5-5.25-46.32-9.87c-10.9-4.67-21.2-9.07-46.81-9.07v-31.12
			c31.99,0,46.37,6.15,59.05,11.58c9.61,4.11,17.21,7.36,34.07,7.36s24.46-3.25,34.07-7.36c12.69-5.43,27.07-11.58,59.05-11.58
			c31.99,0,46.37,6.15,59.05,11.58c9.61,4.11,17.21,7.36,34.07,7.36s24.46-3.25,34.07-7.36c12.69-5.43,27.07-11.58,59.05-11.58
			v31.12c-25.61,0-35.91,4.41-46.81,9.07C585.03,186.9,572.77,192.15,549.52,192.15z"/>
	</g>
</g>
</svg>
