<svg width="157" height="120" viewBox="0 0 157 120" fill="none" xmlns="http://www.w3.org/2000/svg">
    <path d="M73.3679 94.0791V112.372M80.6385 94.0791V112.372" stroke="#8F8F8F" stroke-width="4.18476" stroke-linecap="square"/>
    <path fill-rule="evenodd" clip-rule="evenodd" d="M53.6572 21.0967L156.851 66.7433L81.0407 68.0865L53.6572 21.0967Z" fill="#EFF0F0"/>
    <path fill-rule="evenodd" clip-rule="evenodd" d="M36.6348 7.83984C21.2422 36.5881 30.3768 73.3483 57.0375 89.9461C83.6981 106.544 117.789 96.6941 133.181 67.9458L36.6348 7.83984Z" fill="black"/>
    <path fill-rule="evenodd" clip-rule="evenodd" d="M55.8486 24.7324C45.8099 43.4816 51.7673 67.4561 69.155 78.2809C86.5426 89.1058 108.776 82.6818 118.815 63.9326L55.8486 24.7324Z" fill="#EFF0F0"/>
    <path fill-rule="evenodd" clip-rule="evenodd" d="M15.1687 14.7164L1.63552 14.584L15.8513 25" fill="#696A3D"/>
    <path d="M29.7443 36.5863C39.1136 36.5863 46.709 28.3961 46.709 18.2931C46.709 8.19011 39.1136 0 29.7443 0C20.3749 0 12.7795 8.19011 12.7795 18.2931C12.7795 28.3961 20.3749 36.5863 29.7443 36.5863Z" fill="#EFF0F0"/>
    <path d="M20.3513 15C21.732 15 22.8513 13.8807 22.8513 12.5C22.8513 11.1193 21.732 10 20.3513 10C18.9706 10 17.8513 11.1193 17.8513 12.5C17.8513 13.8807 18.9706 15 20.3513 15Z" fill="black"/>
</svg>

