<svg width="587" height="466" viewBox="0 0 587 466" fill="none" xmlns="http://www.w3.org/2000/svg">
    <path fill-rule="evenodd" clip-rule="evenodd" d="M0.271973 81.4602C0.271973 59.1039 18.4452 40.9805 40.7653 40.9805H545.547C567.911 40.9805 586.041 59.0712 586.041 81.4602V424.678C586.041 447.034 567.867 465.158 545.547 465.158H40.7653C18.4015 465.158 0.271973 447.067 0.271973 424.678V81.4602Z" fill="#F3F9FF"/>
    <path d="M131.565 131.876C148.298 131.876 161.863 118.311 161.863 101.577C161.863 84.8439 148.298 71.2788 131.565 71.2788C114.832 71.2788 101.267 84.8439 101.267 101.577C101.267 118.311 114.832 131.876 131.565 131.876Z" fill="#6B6B6B"/>
    <path d="M293.156 131.876C309.89 131.876 323.455 118.311 323.455 101.577C323.455 84.8439 309.89 71.2788 293.156 71.2788C276.423 71.2788 262.858 84.8439 262.858 101.577C262.858 118.311 276.423 131.876 293.156 131.876Z" fill="#6B6B6B"/>
    <path d="M454.748 131.876C471.481 131.876 485.046 118.311 485.046 101.577C485.046 84.8439 471.481 71.2788 454.748 71.2788C438.014 71.2788 424.449 84.8439 424.449 101.577C424.449 118.311 438.014 131.876 454.748 131.876Z" fill="#6B6B6B"/>
    <path d="M20.4712 202.571H565.943V182.373H20.4712V202.571Z" fill="#81858A"/>
    <path d="M20.4712 273.268H565.943V253.069H20.4712V273.268Z" fill="#81858A"/>
    <path d="M20.4712 343.964H565.943V323.765H20.4712V343.964Z" fill="#81858A"/>
    <path d="M20.4712 414.66H565.943V394.461H20.4712V414.66Z" fill="#81858A"/>
    <path d="M101.267 192.472V404.561H121.466V192.472H101.267Z" fill="#81858A"/>
    <path d="M192.162 192.472V404.561H212.361V192.472H192.162Z" fill="#81858A"/>
    <path d="M283.057 192.472V404.561H303.256V192.472H283.057Z" fill="#81858A"/>
    <path d="M373.952 192.472V404.561H394.151V192.472H373.952Z" fill="#81858A"/>
    <path d="M464.848 192.472V404.561H485.047V192.472H464.848Z" fill="#81858A"/>
    <path d="M151.764 20.7814C151.764 9.62588 142.721 0.58252 131.565 0.58252C120.41 0.58252 111.366 9.62588 111.366 20.7814V101.577C111.366 112.733 120.41 121.776 131.565 121.776C142.721 121.776 151.764 112.733 151.764 101.577V20.7814Z" fill="#35393C"/>
    <path d="M313.355 20.7814C313.355 9.62588 304.312 0.58252 293.156 0.58252C282.001 0.58252 272.958 9.62588 272.958 20.7814V101.577C272.958 112.733 282.001 121.776 293.156 121.776C304.312 121.776 313.355 112.733 313.355 101.577V20.7814Z" fill="#35393C"/>
    <path d="M474.947 20.7814C474.947 9.62588 465.903 0.58252 454.748 0.58252C443.592 0.58252 434.549 9.62588 434.549 20.7814V101.577C434.549 112.733 443.592 121.776 454.748 121.776C465.903 121.776 474.947 112.733 474.947 101.577V20.7814Z" fill="#35393C"/>
</svg>
